<svg xmlns="http://www.w3.org/2000/svg" width="116" height="66" viewBox="0 0 116 66" version="1.1"><path d="M 86.269 2.693 C 87.242 2.947, 88.592 2.930, 89.269 2.656 C 89.946 2.382, 89.150 2.175, 87.500 2.195 C 85.850 2.215, 85.296 2.439, 86.269 2.693 M 78.748 3.705 C 80.637 4.069, 80.829 4.451, 79.948 6.097 C 79.371 7.175, 78.482 7.798, 77.970 7.482 C 77.006 6.886, 72.522 8.855, 73.231 9.564 C 73.452 9.785, 75.065 9.555, 76.816 9.053 C 78.567 8.551, 80 8.381, 80 8.677 C 80 10.114, 69.324 19, 67.597 19 C 65.641 19, 65.640 19.018, 67.559 20.574 C 68.626 21.440, 68.988 21.895, 68.363 21.585 C 67.738 21.275, 67.246 21.579, 67.270 22.261 C 67.415 26.278, 66.847 28, 65.378 28 C 64.205 28, 64.037 28.347, 64.770 29.250 C 65.328 29.938, 66.006 31.400, 66.276 32.500 C 66.737 34.375, 66.775 34.364, 66.884 32.338 C 66.963 30.867, 67.558 30.270, 68.750 30.469 C 70.594 30.777, 75.998 26.377, 76.003 24.563 C 76.004 23.978, 77.353 22.600, 79 21.500 C 80.647 20.400, 81.996 18.739, 81.997 17.809 C 81.999 16.879, 82.450 15.840, 83 15.500 C 84.576 14.526, 84.166 12.999, 82.500 13.638 C 80.104 14.558, 80.634 9.710, 83.097 8.171 C 84.251 7.451, 84.937 6.603, 84.622 6.288 C 84.306 5.973, 83.288 6.342, 82.358 7.107 C 80.826 8.370, 80.732 8.244, 81.353 5.750 C 81.981 3.228, 81.808 3.011, 79.269 3.136 C 76.914 3.252, 76.836 3.337, 78.748 3.705 M 93 5.700 C 93 7.800, 92.733 8.133, 91.800 7.200 C 89.553 4.953, 88.847 5.990, 90.872 8.564 C 93.503 11.909, 92.638 14.377, 89.142 13.499 C 86.608 12.864, 86.592 12.892, 88.367 14.853 C 89.590 16.205, 89.953 17.572, 89.483 19.054 C 89.034 20.468, 89.156 21.022, 89.824 20.609 C 90.395 20.256, 91.144 20.425, 91.490 20.984 C 92.485 22.594, 89.381 22.164, 88 20.500 C 85.540 17.536, 81.845 19.299, 82.063 23.332 C 82.098 23.974, 82.534 23.488, 83.031 22.250 C 84.073 19.658, 85.529 19.330, 86.362 21.500 C 87.266 23.856, 85.955 26.196, 84.121 25.498 C 82.782 24.989, 82.729 25.109, 83.817 26.191 C 84.904 27.271, 85.386 27.160, 86.567 25.559 C 87.911 23.738, 88 23.828, 88 27 C 88 30.085, 88.119 30.220, 89.350 28.535 C 90.240 27.319, 91.434 26.880, 92.850 27.251 C 94.033 27.560, 95 27.651, 95 27.453 C 95 27.016, 93.109 22.280, 91.779 19.386 C 91.073 17.850, 91.255 16.408, 92.445 14.107 C 93.345 12.366, 93.868 10.595, 93.607 10.173 C 92.791 8.853, 94.710 6.703, 95.995 7.497 C 96.932 8.076, 96.900 8.448, 95.857 9.110 C 94.865 9.738, 95.103 9.973, 96.741 9.985 C 98.178 9.995, 99.786 11.226, 101.224 13.420 C 103.463 16.836, 106.499 17.748, 107.443 15.289 C 108.036 13.743, 106.395 13.553, 105.463 15.060 C 104.526 16.575, 102.088 13.061, 101.953 10 C 101.892 8.625, 101.618 8.054, 101.344 8.731 C 101.003 9.575, 99.764 9.103, 97.407 7.231 L 93.967 4.500 97.734 3.892 L 101.500 3.284 97.250 3.142 C 93.264 3.009, 93 3.168, 93 5.700 M 72.813 4.683 C 73.534 4.972, 74.397 4.936, 74.729 4.604 C 75.061 4.272, 74.471 4.036, 73.417 4.079 C 72.252 4.127, 72.015 4.364, 72.813 4.683 M 103.500 5.164 C 104.600 5.771, 106.646 7.220, 108.046 8.384 C 109.447 9.548, 109.116 9.038, 107.311 7.250 C 105.506 5.462, 103.460 4.014, 102.765 4.030 C 102.069 4.047, 102.400 4.557, 103.500 5.164 M 65.924 8.750 L 63.500 11.500 66.250 9.076 C 68.820 6.810, 69.459 6, 68.674 6 C 68.495 6, 67.258 7.237, 65.924 8.750 M 70 8.941 C 70 9.459, 70.483 10.181, 71.073 10.545 C 71.740 10.957, 71.319 11.788, 69.965 12.737 C 68.125 14.026, 67.645 14.049, 66.906 12.883 C 66.211 11.786, 66.027 11.861, 66.015 13.250 C 66.007 14.213, 66.477 15, 67.059 15 C 67.641 15, 67.835 15.457, 67.490 16.016 C 67.144 16.575, 66.494 16.805, 66.044 16.527 C 65.595 16.249, 64.634 16.736, 63.910 17.608 C 62.720 19.043, 62.523 19.018, 61.849 17.347 C 61.324 16.044, 61.152 16.469, 61.268 18.790 L 61.431 22.079 63.159 19.790 C 64.109 18.530, 65.286 17.500, 65.776 17.500 C 66.266 17.500, 68.250 16.109, 70.186 14.409 C 73.153 11.805, 73.516 11.058, 72.493 9.659 C 71.150 7.823, 70 7.491, 70 8.941 M 75.345 15.010 C 73.117 17.215, 70.476 20.835, 69.476 23.053 C 67.872 26.611, 67.832 27.260, 69.135 28.564 C 70.439 29.867, 70.899 29.737, 73.039 27.459 C 75.392 24.954, 75.414 24.787, 73.779 21.938 C 72.852 20.322, 72.467 19, 72.924 19 C 74.292 19, 76.040 21.623, 75.241 22.477 C 74.834 22.914, 75.535 22.732, 76.800 22.074 C 79.980 20.418, 81.675 16.519, 80.061 14.573 C 79.383 13.756, 79.118 12.618, 79.473 12.044 C 80.693 10.069, 79.386 11.008, 75.345 15.010 M 62.459 13.067 C 62.096 13.653, 62.014 14.348, 62.276 14.610 C 62.538 14.872, 63.019 14.392, 63.345 13.543 C 64.021 11.781, 63.445 11.471, 62.459 13.067 M 111.635 15.102 C 112.091 17.941, 111.846 18.845, 110.480 19.369 C 109.527 19.735, 108.220 19.689, 107.576 19.267 C 106.932 18.845, 107.288 19.307, 108.367 20.293 C 109.912 21.705, 110.503 21.812, 111.149 20.793 C 111.714 19.903, 111.974 20.219, 111.985 21.809 C 111.993 23.079, 111.555 23.843, 111.011 23.507 C 110.445 23.157, 110.277 23.558, 110.618 24.448 C 110.946 25.302, 111.616 26, 112.107 26 C 113.304 26, 113.224 14.899, 112.013 13 C 111.351 11.962, 111.235 12.610, 111.635 15.102 M 99.500 17 C 99.160 17.550, 99.332 18, 99.882 18 C 100.432 18, 101.160 17.550, 101.500 17 C 101.840 16.450, 101.668 16, 101.118 16 C 100.568 16, 99.840 16.450, 99.500 17 M 94.926 18.250 C 93.918 21.641, 94.387 23.141, 97.269 25.745 C 99.046 27.349, 100.982 29.499, 101.571 30.522 C 102.161 31.544, 103.286 32.572, 104.071 32.805 C 105.132 33.120, 105.086 32.878, 103.890 31.865 C 101.286 29.658, 101.022 27.467, 103.197 26.109 C 104.296 25.423, 104.947 24.614, 104.645 24.312 C 104.343 24.009, 103.367 24.490, 102.476 25.381 C 100.324 27.533, 99.763 27.441, 96.988 24.487 C 95.166 22.548, 94.898 21.702, 95.813 20.787 C 97.262 19.338, 97.351 18, 96 18 C 95.450 18, 94.967 18.113, 94.926 18.250 M 103.750 19.833 C 104.713 20.842, 105.677 21.528, 105.893 21.357 C 106.483 20.892, 103.886 18, 102.878 18 C 102.395 18, 102.787 18.825, 103.750 19.833 M 64.624 23.539 C 63.659 26.053, 63.943 26.702, 65.122 24.675 C 65.706 23.671, 65.973 22.639, 65.715 22.382 C 65.458 22.124, 64.966 22.645, 64.624 23.539 M 89 24.833 C 89 26.334, 89.494 26.684, 91.041 26.279 C 93.384 25.666, 93.142 23.657, 90.667 23.177 C 89.563 22.963, 89 23.522, 89 24.833 M 105.195 28.500 C 105.215 30.150, 105.439 30.704, 105.693 29.731 C 105.947 28.758, 105.930 27.408, 105.656 26.731 C 105.382 26.054, 105.175 26.850, 105.195 28.500 M 64.158 32 C 64.158 33.375, 64.385 33.938, 64.662 33.250 C 64.940 32.563, 64.940 31.438, 64.662 30.750 C 64.385 30.063, 64.158 30.625, 64.158 32 M 91.750 32.728 L 88 33.121 88 40.119 C 88 43.969, 88.381 46.882, 88.847 46.595 C 90.484 45.583, 95.194 51.645, 94.711 54.142 L 94.254 56.500 93.500 54.209 C 93.085 52.949, 92.240 52.097, 91.623 52.316 C 91.005 52.534, 89.487 52.339, 88.250 51.881 C 86.251 51.142, 86.013 51.354, 86.116 53.775 C 86.188 55.467, 86.405 55.837, 86.689 54.750 C 87.298 52.423, 89.148 52.542, 92.426 55.120 C 94.186 56.505, 94.906 57.806, 94.502 58.870 C 94.100 59.925, 94.219 60.147, 94.838 59.500 C 95.763 58.533, 97.005 49.662, 96.086 50.580 C 95.836 50.831, 94.139 49.589, 92.316 47.821 C 89.116 44.720, 87.808 39.855, 89.837 38.601 C 91.517 37.563, 94.882 41.083, 95.250 44.263 C 95.456 46.043, 95.684 44.013, 95.757 39.750 C 95.829 35.487, 95.801 32.076, 95.694 32.168 C 95.588 32.261, 93.813 32.513, 91.750 32.728 M 67.490 35.016 C 67.144 35.575, 66.373 35.731, 65.776 35.362 C 65.129 34.961, 64.979 35.156, 65.405 35.845 C 66.390 37.440, 67.675 37.290, 68.362 35.500 C 69.014 33.799, 68.439 33.480, 67.490 35.016 M 89 35.902 C 89 37.235, 89.483 37.752, 90.399 37.400 C 91.168 37.105, 92.095 37.344, 92.458 37.932 C 93.629 39.827, 95.149 39.067, 94.820 36.750 C 94.377 33.630, 89 32.847, 89 35.902 M 16.949 40.427 C 18.296 41.173, 19.727 42.620, 20.129 43.642 C 20.759 45.245, 20.869 45.267, 20.930 43.807 C 21 42.106, 17.448 38.969, 15.527 39.035 C 14.962 39.055, 15.602 39.681, 16.949 40.427 M 23.330 49.750 C 23.364 58.225, 23.448 58.860, 23.729 52.750 C 23.924 48.487, 24.496 45, 25 45 C 25.504 45, 26.069 48.487, 26.257 52.750 L 26.598 60.500 26.799 52.872 C 26.950 47.126, 26.630 44.938, 25.500 44 C 24.675 43.315, 24 42.087, 24 41.271 C 24 40.362, 24.582 40.009, 25.500 40.362 C 26.325 40.678, 27 40.501, 27 39.969 C 27 39.436, 26.164 39, 25.143 39 C 23.447 39, 23.290 39.928, 23.330 49.750 M 79.250 39.631 C 80.213 39.914, 81 40.837, 81 41.680 C 81 42.535, 80.419 42.991, 79.689 42.711 C 78.670 42.320, 78.374 44.136, 78.364 50.854 C 78.351 59.102, 78.368 59.166, 78.718 52.250 C 78.919 48.263, 79.496 45, 80 45 C 80.504 45, 81.079 48.263, 81.279 52.250 C 81.528 57.212, 81.620 56.348, 81.571 49.513 C 81.505 40.287, 81.347 39.510, 79.500 39.320 C 77.945 39.160, 77.889 39.230, 79.250 39.631 M 5.405 42.250 L 3.500 44.500 5.750 42.595 C 6.988 41.547, 8 40.535, 8 40.345 C 8 39.545, 7.195 40.136, 5.405 42.250 M 13.314 43.017 C 14.862 43.481, 16.683 44.230, 17.361 44.681 C 18.039 45.131, 17.736 44.712, 16.686 43.750 C 15.637 42.788, 13.816 42.039, 12.639 42.086 C 10.904 42.156, 11.032 42.332, 13.314 43.017 M 7.552 44.942 C 6.586 46.010, 6.030 47.473, 6.318 48.192 C 6.722 49.199, 6.860 49.173, 6.921 48.079 C 6.964 47.297, 7.745 45.835, 8.655 44.829 C 9.565 43.823, 10.085 43, 9.810 43 C 9.535 43, 8.519 43.874, 7.552 44.942 M 33.612 44.819 C 33.333 45.270, 34.319 45.466, 35.803 45.256 C 40.415 44.602, 42.418 47.050, 43.094 54.167 L 43.695 60.500 43.848 54.705 C 43.977 49.770, 43.635 48.545, 41.545 46.455 C 39.170 44.079, 34.646 43.146, 33.612 44.819 M 53.879 45.002 C 55.738 45.441, 57.643 46.408, 58.114 47.150 C 58.713 48.096, 58.974 48.136, 58.985 47.285 C 59.005 45.676, 55.708 43.975, 52.816 44.102 C 51.110 44.178, 51.391 44.415, 53.879 45.002 M 66.750 44.662 C 67.438 44.940, 68.563 44.940, 69.250 44.662 C 69.938 44.385, 69.375 44.158, 68 44.158 C 66.625 44.158, 66.063 44.385, 66.750 44.662 M 2.607 46.582 C 2.273 47.452, 2 48.846, 2 49.681 C 2 51.448, 5.084 58.250, 5.635 57.698 C 5.841 57.493, 5.282 55.868, 4.394 54.088 C 3.411 52.118, 3.009 49.707, 3.365 47.926 C 3.998 44.762, 3.586 44.031, 2.607 46.582 M 47.073 47.635 C 45.933 49.084, 45.039 51.222, 45.086 52.385 C 45.154 54.050, 45.354 53.892, 46.028 51.643 C 46.499 50.071, 47.655 47.933, 48.597 46.893 C 49.539 45.852, 50.048 45, 49.728 45 C 49.407 45, 48.212 46.186, 47.073 47.635 M 61.557 47.223 C 59.942 49.528, 59.424 55.526, 60.768 56.357 C 61.191 56.618, 61.373 55.113, 61.173 53.012 C 60.899 50.139, 61.328 48.672, 62.904 47.096 C 64.057 45.943, 64.576 45, 64.057 45 C 63.538 45, 62.413 46, 61.557 47.223 M 71 45.378 C 71 45.585, 71.787 46.373, 72.750 47.128 C 74.336 48.371, 74.371 48.336, 73.128 46.750 C 71.821 45.084, 71 44.555, 71 45.378 M 33.584 49.641 C 33.058 51.012, 33.205 51.075, 34.472 50.023 C 35.306 49.331, 36.892 49, 37.996 49.289 C 39.100 49.577, 39.751 49.405, 39.442 48.907 C 38.494 47.372, 34.251 47.904, 33.584 49.641 M 50.200 49.200 C 48.657 50.743, 48.657 54.257, 50.200 55.800 C 51.555 57.155, 54.633 57.403, 55.366 56.216 C 55.633 55.785, 54.647 55.448, 53.175 55.466 C 50.862 55.495, 50.500 55.094, 50.500 52.500 C 50.500 49.718, 50.749 49.512, 53.924 49.666 C 56.297 49.782, 56.910 49.556, 55.924 48.932 C 53.938 47.675, 51.616 47.784, 50.200 49.200 M 67.964 48.886 C 69.399 49.286, 70.714 50.601, 71.114 52.036 C 71.697 54.129, 71.816 54.191, 71.900 52.450 C 72.028 49.830, 70.170 47.972, 67.550 48.100 C 65.809 48.184, 65.871 48.303, 67.964 48.886 M 63.506 50.980 C 63.161 52.069, 63.265 53.652, 63.739 54.498 C 64.349 55.588, 64.600 55.010, 64.600 52.518 C 64.600 48.491, 64.390 48.195, 63.506 50.980 M 6 51.441 C 6 52.234, 6.408 53.134, 6.907 53.442 C 7.405 53.751, 7.578 53.102, 7.290 52.001 C 6.679 49.666, 6 49.371, 6 51.441 M 29.116 54.191 C 29.052 56.771, 29.356 59.102, 29.791 59.371 C 30.226 59.640, 30.425 58.204, 30.233 56.180 C 29.647 49.996, 29.238 49.267, 29.116 54.191 M 40.286 55.500 C 40.294 58.250, 40.488 59.256, 40.718 57.736 C 40.947 56.216, 40.941 53.966, 40.704 52.736 C 40.467 51.506, 40.279 52.750, 40.286 55.500 M 19.439 54.794 C 19.842 55.505, 19.596 56.855, 18.891 57.794 C 17.737 59.330, 17.799 59.326, 19.512 57.757 C 21.101 56.301, 21.191 55.807, 20.060 54.757 C 18.970 53.745, 18.849 53.752, 19.439 54.794 M 9.853 56.253 C 10.357 56.757, 11.834 57.002, 13.135 56.797 C 15.136 56.482, 14.996 56.342, 12.219 55.881 C 10.231 55.552, 9.298 55.698, 9.853 56.253 M 46 55.881 C 46 56.856, 49.888 60.494, 50.307 59.911 C 50.469 59.685, 49.566 58.504, 48.301 57.286 C 47.035 56.068, 46 55.436, 46 55.881 M 68 56 C 65.673 56.745, 65.651 56.808, 67.691 56.900 C 68.896 56.955, 70.160 56.550, 70.500 56 C 70.840 55.450, 70.979 55.045, 70.809 55.100 C 70.639 55.155, 69.375 55.560, 68 56 M 56.872 58.750 C 55.629 60.336, 55.664 60.371, 57.250 59.128 C 58.212 58.373, 59 57.585, 59 57.378 C 59 56.555, 58.179 57.084, 56.872 58.750 M 85.030 58.231 C 84.997 60.115, 88.665 61.481, 91.671 60.705 C 92.724 60.433, 92.142 60.183, 90.300 60.116 C 88.401 60.047, 86.685 59.288, 86.080 58.250 C 85.121 56.603, 85.059 56.602, 85.030 58.231 M 7.733 59.124 C 8.412 59.808, 9.219 60.115, 9.526 59.807 C 9.834 59.499, 9.279 58.940, 8.293 58.564 C 6.868 58.022, 6.753 58.136, 7.733 59.124 M 62 58.393 C 62 58.609, 62.698 59.054, 63.552 59.382 C 64.442 59.723, 64.843 59.555, 64.493 58.989 C 63.906 58.038, 62 57.583, 62 58.393 M 11.813 60.683 C 12.534 60.972, 13.397 60.936, 13.729 60.604 C 14.061 60.272, 13.471 60.036, 12.417 60.079 C 11.252 60.127, 11.015 60.364, 11.813 60.683 M 66.813 60.683 C 67.534 60.972, 68.397 60.936, 68.729 60.604 C 69.061 60.272, 68.471 60.036, 67.417 60.079 C 66.252 60.127, 66.015 60.364, 66.813 60.683" stroke="none" fill="#74bf86" fill-rule="evenodd"/><path d="M 82.750 4.080 C 81.787 4.641, 81 5.807, 81 6.672 C 81 7.968, 81.268 8.022, 82.524 6.980 C 83.362 6.284, 84.306 5.973, 84.622 6.288 C 84.937 6.603, 84.251 7.451, 83.097 8.171 C 81.944 8.892, 81 10.506, 81 11.760 C 81 13.731, 81.371 13.953, 83.750 13.411 L 86.500 12.784 84.250 14.449 C 81.175 16.724, 81.214 19.873, 84.311 19.281 C 85.659 19.023, 87.168 19.498, 87.933 20.420 C 89.361 22.140, 92.513 22.640, 91.490 20.984 C 91.144 20.425, 90.395 20.256, 89.824 20.609 C 89.156 21.022, 89.034 20.468, 89.483 19.054 C 89.953 17.572, 89.590 16.205, 88.367 14.853 C 86.592 12.892, 86.608 12.864, 89.142 13.499 C 92.638 14.377, 93.503 11.909, 90.872 8.564 C 88.847 5.990, 89.553 4.953, 91.800 7.200 C 92.733 8.133, 93 7.935, 93 6.307 C 93 3.108, 86.751 1.750, 82.750 4.080 M 72.619 5.034 C 67.646 6.523, 62 13.207, 62 17.605 C 62 19.176, 62.157 19.168, 64 17.500 C 65.100 16.505, 66.007 14.747, 66.015 13.595 C 66.027 11.950, 66.226 11.808, 66.939 12.936 C 68.255 15.015, 71.258 12.387, 70.455 9.859 C 69.728 7.567, 70.866 7.435, 72.467 9.625 C 73.460 10.982, 72.984 11.883, 69.578 15.100 C 65.841 18.628, 65.694 18.952, 67.815 18.975 C 69.184 18.990, 71.168 17.765, 72.672 15.977 C 74.071 14.315, 76.180 12.464, 77.358 11.865 C 78.659 11.202, 78.030 12.235, 75.755 14.497 L 72.009 18.219 74.646 20.294 L 77.283 22.368 79.142 20.073 C 81.162 17.578, 81.526 15.443, 80.084 14.552 C 79.096 13.941, 79.377 6.817, 80.459 5.067 C 81.247 3.791, 76.832 3.773, 72.619 5.034 M 97.038 6.895 C 99.400 8.870, 100.733 9.426, 101.235 8.645 C 101.661 7.981, 101.989 8.550, 102.016 10 C 102.073 13.022, 104.511 16.600, 105.463 15.060 C 106.666 13.114, 108.133 13.883, 107.056 15.895 C 105.801 18.240, 107.892 20.362, 110.480 19.369 C 111.835 18.849, 112.090 17.941, 111.646 15.209 C 110.646 9.044, 104.207 4, 97.337 4 L 93.576 4 97.038 6.895 M 74.441 8.582 C 72.665 10.029, 72.656 10.114, 74.332 9.582 C 75.339 9.262, 76.828 9, 77.641 9 C 78.453 9, 78.840 8.550, 78.500 8 C 77.641 6.610, 76.694 6.746, 74.441 8.582 M 93.885 8.250 C 93.637 10.932, 93.455 11.607, 92.128 14.751 C 91.025 17.365, 91.002 18.298, 92.010 19.512 C 93.119 20.849, 93.411 20.820, 94.550 19.263 C 95.258 18.295, 96.162 17.829, 96.561 18.227 C 96.959 18.626, 96.705 19.651, 95.996 20.505 C 94.917 21.805, 95.085 22.461, 97.028 24.529 C 99.749 27.427, 100.333 27.525, 102.421 25.436 C 103.281 24.576, 104.438 24.153, 104.992 24.495 C 105.547 24.838, 106 24.416, 106 23.559 C 106 21.545, 102.455 18, 100.441 18 C 99.584 18, 99.179 17.519, 99.542 16.932 C 99.905 16.344, 100.832 16.105, 101.601 16.400 C 103.517 17.136, 103.359 16.314, 100.932 12.904 C 99.790 11.300, 97.887 9.965, 96.682 9.921 C 95.482 9.878, 95.065 9.614, 95.756 9.336 C 96.447 9.057, 96.758 8.418, 96.447 7.915 C 95.625 6.585, 94.019 6.795, 93.885 8.250 M 69.560 22.867 C 68.037 26.245, 67.941 27.224, 69.009 28.510 C 70.163 29.901, 70.550 29.832, 72.650 27.859 C 75.471 25.209, 75.574 23.930, 73.202 21.001 L 71.403 18.780 69.560 22.867 M 83.362 21.500 C 82.671 23.300, 83.571 26, 84.862 26 C 86.152 26, 87.052 23.300, 86.362 21.500 C 86.045 20.675, 85.370 20, 84.862 20 C 84.353 20, 83.678 20.675, 83.362 21.500 M 110.651 21.468 C 110.341 22.275, 110.518 23.202, 111.044 23.527 C 111.570 23.852, 112 23.191, 112 22.059 C 112 19.644, 111.444 19.401, 110.651 21.468 M 67.400 21.765 C 66.310 22.493, 64 26.345, 64 27.434 C 64 27.745, 64.565 28, 65.255 28 C 65.946 28, 67.004 26.425, 67.606 24.500 C 68.209 22.575, 68.656 21.007, 68.601 21.015 C 68.545 21.024, 68.005 21.361, 67.400 21.765 M 89 24.833 C 89 26.334, 89.494 26.684, 91.041 26.279 C 93.384 25.666, 93.142 23.657, 90.667 23.177 C 89.563 22.963, 89 23.522, 89 24.833 M 102.362 27.500 C 101.646 29.364, 102.588 32, 103.969 32 C 104.536 32, 105 30.650, 105 29 C 105 25.860, 103.351 24.922, 102.362 27.500 M 89.035 28.934 C 87.308 32.162, 87.838 33, 91.607 33 C 94.485 33, 95.091 32.680, 94.607 31.418 C 94.273 30.548, 94 29.198, 94 28.418 C 94 26.310, 90.230 26.702, 89.035 28.934 M 65.100 32.191 C 65.045 33.671, 65.399 35.129, 65.887 35.430 C 67.367 36.345, 69.297 33.190, 68.436 31.263 C 67.760 29.750, 67.581 29.854, 67.171 32 L 66.695 34.500 65.947 32 L 65.199 29.500 65.100 32.191 M 89 35.993 C 89 37.162, 89.437 37.848, 89.972 37.517 C 90.506 37.187, 92.051 37.642, 93.404 38.529 C 95.850 40.131, 95.860 40.124, 95.116 37.321 C 94.565 35.244, 93.660 34.417, 91.684 34.184 C 89.515 33.928, 89 34.275, 89 35.993 M 89.673 38.660 C 88.021 40.312, 89.224 44.649, 92.250 47.950 L 95.500 51.496 92.284 48.593 L 89.068 45.691 88.006 48.484 C 86.762 51.757, 87.071 52.250, 90.374 52.250 C 92.002 52.250, 93.060 52.968, 93.506 54.375 C 94.626 57.906, 96.060 49.965, 95.207 44.963 C 94.513 40.898, 91.204 37.129, 89.673 38.660 M 10 39.706 C 7.025 40.794, 4.019 44.384, 3.422 47.563 C 1.779 56.322, 11.564 63.413, 18.048 58.162 C 21.030 55.748, 19.814 53.316, 16.712 55.489 C 13.642 57.639, 10.688 57.361, 8.174 54.686 C 5.098 51.411, 5.302 46.694, 8.635 44.073 C 11.746 41.625, 13.904 41.460, 16.559 43.468 C 19.048 45.351, 20 45.367, 20 43.526 C 20 42.715, 18.672 41.365, 17.050 40.526 C 13.989 38.943, 12.547 38.775, 10 39.706 M 24 41.500 C 24 42.417, 24.484 43.005, 25.075 42.808 C 25.666 42.611, 26.150 42.023, 26.150 41.500 C 26.150 40.977, 25.666 40.389, 25.075 40.192 C 24.484 39.995, 24 40.583, 24 41.500 M 78.229 41.188 C 78.847 43.042, 81 43.349, 81 41.583 C 81 40.712, 80.287 40, 79.417 40 C 78.546 40, 78.011 40.534, 78.229 41.188 M 24 52.500 C 24 56.833, 24.422 60, 25 60 C 25.578 60, 26 56.833, 26 52.500 C 26 48.167, 25.578 45, 25 45 C 24.422 45, 24 48.167, 24 52.500 M 31.949 47.051 C 30.306 48.694, 29.959 50.134, 30.199 54.301 C 30.538 60.158, 32.357 61.361, 32.770 56 C 33.287 49.302, 33.891 48, 36.484 48 C 39.521 48, 41 50.599, 41 55.934 C 41 58.170, 41.450 60, 42 60 C 42.550 60, 43 57.525, 43 54.500 C 43 50.333, 42.515 48.515, 41 47 C 38.426 44.426, 34.553 44.447, 31.949 47.051 M 48.073 47.635 C 45.323 51.130, 45.455 54.546, 48.455 57.545 C 51.391 60.482, 55.049 60.708, 57.410 58.099 C 59.555 55.729, 57.908 54.416, 55.037 56.209 C 52.387 57.864, 49.615 56.252, 49.199 52.814 C 48.759 49.173, 51.400 47.335, 55.076 48.723 C 58.465 50.002, 59.720 48.863, 57.438 46.581 C 54.951 44.094, 50.460 44.599, 48.073 47.635 M 63 47 C 60.244 49.756, 60.346 55.313, 63.201 57.973 C 64.930 59.584, 66.379 59.937, 69.951 59.620 L 74.500 59.217 74.461 54.170 C 74.414 48.180, 72.120 45, 67.845 45 C 66.280 45, 64.100 45.900, 63 47 M 79 52.500 C 79 56.833, 79.422 60, 80 60 C 80.578 60, 81 56.833, 81 52.500 C 81 48.167, 80.578 45, 80 45 C 79.422 45, 79 48.167, 79 52.500 M 64.625 49.518 C 62.579 51.564, 62.562 53.419, 64.571 55.429 C 66.939 57.796, 69.884 57.350, 71.217 54.422 C 73.361 49.717, 68.237 45.906, 64.625 49.518 M 86.578 55.546 C 85.701 59.039, 86.547 60, 90.500 60 C 95.093 60, 95.913 58.182, 92.604 55.336 C 89.099 52.321, 87.372 52.381, 86.578 55.546" stroke="none" fill="#1aa44a" fill-rule="evenodd"/></svg>